<svg xmlns="http://www.w3.org/2000/svg" xmlns:xlink="http://www.w3.org/1999/xlink" width="500" zoomAndPan="magnify" viewBox="0 0 375 374.999991" height="500" preserveAspectRatio="xMidYMid meet" version="1.0"><defs><g/><clipPath id="a5d9428e58"><path d="M 91 90 L 284 90 L 284 284 L 91 284 Z M 91 90 " clip-rule="nonzero"/></clipPath><clipPath id="b2bdb65a37"><path d="M 71.816406 114.203125 L 259.765625 71.4375 L 302.527344 259.386719 L 114.582031 302.148438 Z M 71.816406 114.203125 " clip-rule="nonzero"/></clipPath><clipPath id="f2f2985829"><path d="M 71.816406 114.203125 L 259.765625 71.4375 L 302.527344 259.386719 L 114.582031 302.148438 Z M 71.816406 114.203125 " clip-rule="nonzero"/></clipPath></defs><g clip-path="url(#a5d9428e58)"><g clip-path="url(#b2bdb65a37)"><g clip-path="url(#f2f2985829)"><path fill="#ffffff" d="M 170.113281 111.828125 C 211.519531 102.40625 252.71875 128.335938 262.140625 169.738281 C 271.558594 211.140625 245.632812 252.34375 204.230469 261.761719 C 162.824219 271.183594 121.625 245.253906 112.203125 203.851562 C 102.785156 162.449219 128.710938 121.246094 170.113281 111.828125 Z M 205.191406 266 C 185.855469 270.398438 165.632812 267.59375 148.253906 258.101562 C 135.144531 250.9375 124.285156 240.355469 116.851562 227.5 L 112.105469 230.246094 C 120.042969 243.96875 131.636719 255.261719 145.625 262.90625 C 164.183594 273.042969 185.769531 276.039062 206.410156 271.339844 Z M 271.910156 205.292969 C 274.640625 192.808594 274.578125 180.109375 271.722656 167.558594 L 266.378906 168.773438 C 269.054688 180.535156 269.117188 192.429688 266.558594 204.121094 C 261.566406 226.902344 247.050781 246.457031 226.726562 257.769531 L 229.394531 262.558594 C 251.085938 250.480469 266.582031 229.609375 271.910156 205.292969 Z M 240.335938 118.292969 C 221.953125 104.039062 199.179688 97.816406 176.207031 100.773438 C 173.445312 101.128906 170.660156 101.625 167.933594 102.246094 L 169.148438 107.585938 C 171.707031 107.003906 174.316406 106.539062 176.90625 106.207031 C 198.421875 103.4375 219.757812 109.269531 236.976562 122.621094 Z M 121.59375 138.851562 L 117.171875 135.621094 C 102.359375 155.898438 97.054688 181.5625 102.621094 206.03125 L 107.964844 204.816406 C 102.75 181.894531 107.71875 157.851562 121.59375 138.851562 Z M 281.144531 165.414062 C 279.019531 156.070312 275.550781 147.15625 270.839844 138.917969 C 264.882812 128.5 257.105469 119.378906 247.71875 111.808594 C 224.589844 93.15625 194.726562 86.238281 165.789062 92.820312 L 167.003906 98.164062 C 194.296875 91.953125 222.464844 98.480469 244.277344 116.074219 C 253.132812 123.214844 260.46875 131.8125 266.085938 141.636719 C 270.527344 149.40625 273.796875 157.8125 275.804688 166.628906 C 277.964844 176.125 278.597656 185.808594 277.683594 195.414062 L 283.140625 195.929688 C 284.105469 185.746094 283.4375 175.476562 281.144531 165.414062 Z M 111.355469 136.660156 C 119.417969 124.460938 130.398438 114.296875 143.117188 107.261719 L 140.464844 102.464844 C 126.976562 109.929688 115.332031 120.707031 106.785156 133.636719 C 98.433594 146.269531 93.113281 160.859375 91.398438 175.832031 L 96.839844 176.457031 C 98.457031 162.335938 103.476562 148.574219 111.355469 136.660156 Z M 227.300781 274.4375 C 242.203125 267.628906 255.222656 257.007812 264.941406 243.71875 L 260.519531 240.484375 C 251.351562 253.015625 239.078125 263.03125 225.027344 269.449219 C 219.378906 272.027344 213.429688 274.039062 207.339844 275.425781 C 192.203125 278.867188 176.386719 278.386719 161.59375 274.035156 C 145.886719 269.414062 131.691406 260.632812 120.539062 248.640625 C 109.699219 236.988281 102.09375 222.574219 98.542969 206.960938 L 93.199219 208.175781 C 96.964844 224.726562 105.03125 240.011719 116.527344 252.375 C 128.347656 265.082031 143.394531 274.390625 160.042969 279.289062 C 175.734375 283.90625 192.507812 284.417969 208.550781 280.765625 C 215.007812 279.296875 221.316406 277.167969 227.300781 274.4375 Z M 227.300781 274.4375 " fill-opacity="1" fill-rule="nonzero"/></g></g></g><g fill="#000000" fill-opacity="1"><g transform="translate(162.450009, 187.650021)"><g><path d="M 3.640625 -16.0625 L -0.890625 -15.03125 L -1.046875 -17.328125 L 10.484375 -19.953125 L 10.625 -17.65625 L 6.078125 -16.609375 L 7.078125 -1.609375 L 4.640625 -1.0625 Z M 3.640625 -16.0625 "/></g></g></g><g fill="#000000" fill-opacity="1"><g transform="translate(174.737361, 184.854327)"><g><path d="M 4.8125 -16.53125 L 5.6875 -3.4375 L 6.90625 -3.703125 L 7.0625 -1.609375 L 2.140625 -0.484375 L 1.984375 -2.59375 L 3.234375 -2.875 L 2.359375 -15.96875 L 1.109375 -15.6875 L 0.984375 -17.796875 L 5.90625 -18.90625 L 6.03125 -16.796875 Z M 4.8125 -16.53125 "/></g></g></g><g fill="#000000" fill-opacity="1"><g transform="translate(183.988188, 182.749522)"><g><path d="M 14.390625 -20.84375 L 16.859375 -21.40625 L 18.03125 -4.09375 L 15.578125 -3.546875 L 14.671875 -16.8125 L 10.265625 -8.75 L 8.359375 -8.3125 L 2.984375 -14.15625 L 3.890625 -0.890625 L 1.421875 -0.328125 L 0.25 -17.625 L 2.71875 -18.1875 L 9.125 -11.203125 Z M 14.390625 -20.84375 "/></g></g></g><g fill="#000000" fill-opacity="1"><g transform="translate(203.403342, 178.332067)"><g/></g></g><g fill="#000000" fill-opacity="1"><g transform="translate(158.938107, 215.369952)"><g><path d="M 5.546875 -9.484375 L -0.953125 -17.34375 L 2 -18.015625 L 6.59375 -12.484375 L 10.34375 -19.921875 L 13.296875 -20.59375 L 8.015625 -10.046875 L 8.578125 -1.953125 L 6.09375 -1.390625 Z M 5.546875 -9.484375 "/></g></g></g><g fill="#000000" fill-opacity="1"><g transform="translate(173.697055, 212.011906)"><g><path d="M 2.9375 -0.671875 L 0.265625 -0.0625 L 6.046875 -18.9375 L 8.75 -19.5625 L 16.859375 -3.84375 L 14.203125 -3.234375 L 11.65625 -8.140625 L 4.75 -6.578125 Z M 5.53125 -9.140625 L 10.546875 -10.28125 L 7.609375 -15.953125 Z M 5.53125 -9.140625 "/></g></g></g><g fill="#000000" fill-opacity="1"><g transform="translate(190.927598, 208.091507)"><g><path d="M 14.546875 -20.875 L 15.703125 -3.578125 L 13.203125 -3 L 2.984375 -14.15625 L 3.890625 -0.890625 L 1.328125 -0.296875 L 0.171875 -17.609375 L 2.75 -18.1875 L 12.96875 -6.953125 L 12.078125 -20.3125 Z M 14.546875 -20.875 "/></g></g></g><g fill="#000000" fill-opacity="1"><g transform="translate(207.993369, 204.208598)"><g><path d="M 10.03125 -11.671875 L 14.578125 -12.703125 L 14.96875 -6.34375 C 14.289062 -5.257812 13.4375 -4.300781 12.40625 -3.46875 C 11.375 -2.644531 10.226562 -2.085938 8.96875 -1.796875 C 7.84375 -1.535156 6.765625 -1.523438 5.734375 -1.765625 C 4.710938 -2.015625 3.800781 -2.457031 3 -3.09375 C 2.207031 -3.726562 1.554688 -4.53125 1.046875 -5.5 C 0.535156 -6.476562 0.25 -7.578125 0.1875 -8.796875 C 0.101562 -10.003906 0.238281 -11.195312 0.59375 -12.375 C 0.945312 -13.550781 1.46875 -14.628906 2.15625 -15.609375 C 2.84375 -16.585938 3.671875 -17.425781 4.640625 -18.125 C 5.609375 -18.820312 6.660156 -19.296875 7.796875 -19.546875 C 8.828125 -19.785156 9.816406 -19.800781 10.765625 -19.59375 C 11.722656 -19.382812 12.597656 -19.023438 13.390625 -18.515625 L 12.046875 -16.25 C 11.492188 -16.707031 10.863281 -17.03125 10.15625 -17.21875 C 9.445312 -17.40625 8.710938 -17.410156 7.953125 -17.234375 C 7.140625 -17.054688 6.398438 -16.710938 5.734375 -16.203125 C 5.066406 -15.703125 4.492188 -15.085938 4.015625 -14.359375 C 3.535156 -13.640625 3.171875 -12.847656 2.921875 -11.984375 C 2.679688 -11.128906 2.59375 -10.253906 2.65625 -9.359375 C 2.707031 -8.460938 2.910156 -7.65625 3.265625 -6.9375 C 3.617188 -6.21875 4.070312 -5.617188 4.625 -5.140625 C 5.1875 -4.671875 5.820312 -4.347656 6.53125 -4.171875 C 7.25 -3.992188 8.007812 -3.992188 8.8125 -4.171875 C 9.550781 -4.335938 10.234375 -4.640625 10.859375 -5.078125 C 11.484375 -5.523438 12.03125 -6.0625 12.5 -6.6875 L 12.28125 -9.78125 L 10.171875 -9.296875 Z M 10.03125 -11.671875 "/></g></g></g></svg>